# xmcd
# 
# Track frame offsets:
#     150
#     18910
#     30889
#     48161
#     65074
#     78675
#     100369
#     124498
#     135595
#     158863
#     179821
#     201306
# 
# Disc length: 2804
# 
# Revision: 8
# Processed by: cddbd v1.5.2PL0 Copyright (c) Steve Scherf et al.
# Submitted via: fre:ac v1.0.17
# 
DISCID=a90af20c
DTITLE=John Mayer - Born and Raised
DYEAR=2012
DGENRE=Blues
TTITLE0=Queen of California
TTITLE1=The Age of Worry
TTITLE2=Shadow Days
TTITLE3=Speak For Me
TTITLE4=Something Like Olivia
TTITLE5=Born and Raised
TTITLE6=If I Ever Get Around To Living
TTITLE7=Love Is A Verb
TTITLE8=Walt Grace's Submarine Test, January 1967
TTITLE9=Whiskey, Whiskey, Whiskey
TTITLE10=A Face To Call Home
TTITLE11=Born and Raised [Reprise]
EXTD=© and (P) 2012 Columbia Records\n88691 97606 2\n YEAR: 2012
EXTT0=Pedal Steel: Greg Leisz
EXTT1=
EXTT2=Pedal Steel: Greg Leisz
EXTT3=
EXTT4=Drums: Jim Keltner\nAdditional engineering: Joe Ferla
EXTT5=Vocals: David Crosby and Graham Nash\nLap Steel: Greg Lewis
EXTT6=
EXTT7=
EXTT8=Trumpet: Chris Botti
EXTT9=Pedal Steel: Greg Leisz
EXTT10=Vocals, violin: Sara Watkins
EXTT11=
PLAYORDER=
